<svg width="24" height="25" viewBox="0 0 24 25" fill="none" xmlns="http://www.w3.org/2000/svg">
<path fill-rule="evenodd" clip-rule="evenodd" d="M21.6464 22.9535L21.2929 22.6L16.6548 17.9619L16.3053 18.2415C14.8511 19.4047 13.0074 20.1 11 20.1C6.30558 20.1 2.5 16.2944 2.5 11.6C2.5 6.90559 6.30558 3.10001 11 3.10001C15.6944 3.10001 19.5 6.90559 19.5 11.6C19.5 13.6075 18.8047 15.4512 17.6414 16.9054L17.3619 17.2548L22.3478 22.2408L22.3507 22.2436C22.4434 22.3349 22.5 22.4604 22.5 22.6C22.5 22.8761 22.2761 23.1 22 23.1C21.8618 23.1 21.7375 23.0446 21.6464 22.9535ZM11 4.10001C6.85786 4.10001 3.5 7.45787 3.5 11.6C3.5 15.7421 6.85786 19.1 11 19.1C15.1421 19.1 18.5 15.7421 18.5 11.6C18.5 7.45787 15.1421 4.10001 11 4.10001Z" fill="black"/>
<path d="M21.2929 22.6L21.6464 22.2464L21.6464 22.2464L21.2929 22.6ZM21.6464 22.9535L22 22.6L22 22.6L21.6464 22.9535ZM16.6548 17.9619L17.0083 17.6084L16.6919 17.292L16.3425 17.5715L16.6548 17.9619ZM16.3053 18.2415L15.993 17.851L16.3053 18.2415ZM17.6414 16.9054L18.0319 17.2177L17.6414 16.9054ZM17.3619 17.2548L16.9714 16.9425L16.6919 17.292L17.0083 17.6084L17.3619 17.2548ZM22.3478 22.2408L21.9942 22.5943L21.9971 22.5972L22.3478 22.2408ZM22.3507 22.2436L22.7014 21.8872L22.7014 21.8872L22.3507 22.2436ZM20.9393 22.9535L21.2929 23.3071L22 22.6L21.6464 22.2464L20.9393 22.9535ZM16.3012 18.3155L20.9393 22.9535L21.6464 22.2464L17.0083 17.6084L16.3012 18.3155ZM16.6177 18.6319L16.9671 18.3524L16.3425 17.5715L15.993 17.851L16.6177 18.6319ZM11 20.6C13.125 20.6 15.078 19.8635 16.6177 18.6319L15.993 17.851C14.6242 18.9459 12.8899 19.6 11 19.6V20.6ZM2 11.6C2 16.5706 6.02944 20.6 11 20.6V19.6C6.58172 19.6 3 16.0183 3 11.6H2ZM11 2.60001C6.02944 2.60001 2 6.62944 2 11.6H3C3 7.18173 6.58172 3.60001 11 3.60001V2.60001ZM20 11.6C20 6.62944 15.9706 2.60001 11 2.60001V3.60001C15.4183 3.60001 19 7.18173 19 11.6H20ZM18.0319 17.2177C19.2635 15.678 20 13.725 20 11.6H19C19 13.4899 18.3459 15.2243 17.251 16.5931L18.0319 17.2177ZM17.7523 17.5672L18.0319 17.2177L17.251 16.5931L16.9714 16.9425L17.7523 17.5672ZM22.7014 21.8872L17.7154 16.9013L17.0083 17.6084L21.9943 22.5943L22.7014 21.8872ZM22.7014 21.8872L22.6985 21.8844L21.9971 22.5972L22 22.6L22.7014 21.8872ZM23 22.6C23 22.3213 22.886 22.0689 22.7014 21.8872L22 22.6L22 22.6H23ZM22 23.6C22.5523 23.6 23 23.1523 23 22.6H22V23.6ZM21.2929 23.3071C21.4741 23.4883 21.7242 23.6 22 23.6V22.6L22 22.6L21.2929 23.3071ZM4 11.6C4 7.73401 7.13401 4.60001 11 4.60001V3.60001C6.58172 3.60001 3 7.18173 3 11.6H4ZM11 18.6C7.13401 18.6 4 15.466 4 11.6H3C3 16.0183 6.58172 19.6 11 19.6V18.6ZM18 11.6C18 15.466 14.866 18.6 11 18.6V19.6C15.4183 19.6 19 16.0183 19 11.6H18ZM11 4.60001C14.866 4.60001 18 7.73401 18 11.6H19C19 7.18173 15.4183 3.60001 11 3.60001V4.60001Z" fill="black"/>
</svg>
